<?xml version="1.0"?>
<svg xmlns="http://www.w3.org/2000/svg" xmlns:xlink="http://www.w3.org/1999/xlink" version="1.1" id="Layer_1" x="0px" y="0px" viewBox="0 0 512 512" style="enable-background:new 0 0 512 512;" xml:space="preserve" width="512px" height="512px"><g><style xmlns="" type="text/css" id="night-mode-pro-style" class="active-path" style="fill:#AA0E0E" data-old_color="#AC0E0E"/><link xmlns="" type="text/css" rel="stylesheet" id="night-mode-pro-link" class="active-path" style="fill:#AA0E0E" data-old_color="#AC0E0E"/><g>
	<g>
		<circle cx="148.028" cy="156.837" r="37.507" data-original="#000000" class="active-path" data-old_color="#AC0E0E" fill="#AA0E0E"/>
	</g>
</g><g>
	<g>
		<path d="M197.974,300.893l-56.031-17.771l-15.196-52.966l17.457,29.249l7.638-15.901c6.059-12.613,0.746-27.75-11.868-33.809    l-40.685-19.544c-12.623-6.064-27.789-0.728-33.83,11.911l-38.553,80.649c-12.398,25.936-0.595,60.424,33.935,69.174h-40.45    C9.13,351.886,0,361.016,0,372.277c0,11.262,9.13,20.391,20.391,20.391h121.202c12.293,0,22.53-8.425,24.895-20.488    c2.366-12.062-3.932-23.728-15.312-28.37l-39.45-16.792c-10.398-3.298-16.069-11.94-16.273-21.083l-1.374-66.409l17.708,61.723    c1.569,5.47,5.772,9.791,11.196,11.512l64.714,20.527c8.946,2.838,18.498-2.114,21.336-11.06    C211.871,313.282,206.92,303.731,197.974,300.893z" data-original="#000000" class="active-path" data-old_color="#AC0E0E" fill="#AA0E0E"/>
	</g>
</g><g>
	<g>
		<circle cx="363.972" cy="157.947" r="37.507" data-original="#000000" class="active-path" data-old_color="#AC0E0E" fill="#AA0E0E"/>
	</g>
</g><g>
	<g>
		<path d="M491.609,351.886H451.16c34.203-8.669,46.466-42.96,33.935-69.174l-38.553-80.649    c-6.039-12.634-21.203-17.977-33.83-11.911l-40.685,19.544c-11.692,5.616-17.104,19.032-13.007,31.008l22.726-19.742    l-36.333,52.386l-57.947,40.701c-7.68,5.394-9.534,15.994-4.138,23.673c5.394,7.682,15.992,9.532,23.672,4.138l60.421-42.438    c1.637-1.15,3.057-2.578,4.197-4.221l38.056-54.872l-22.317,59.797l10.319,21.481L353.15,344.98    c-10.331,5.423-15.594,17.122-12.801,28.449s12.891,19.238,24.557,19.238h126.702c11.262,0,20.391-9.13,20.391-20.391    S502.87,351.886,491.609,351.886z" data-original="#000000" class="active-path" data-old_color="#AC0E0E" fill="#AA0E0E"/>
	</g>
</g><g>
	<g>
		<path d="M309.3,368.626h-15.068v-14.135c0-1.915-1.552-3.469-3.469-3.469h-10.374c-1.915,0-3.469,1.552-3.469,3.469v14.135h-32.7    v-14.135c0-1.915-1.553-3.469-3.469-3.469h-10.374c-1.915,0-3.469,1.552-3.469,3.469v14.135h-7.694v-14.135    c0-1.915-1.553-3.469-3.469-3.469h-10.374c-1.915,0-3.469,1.552-3.469,3.469v14.135h-11.221c-6.64,0-12.022,5.382-12.022,12.022    s5.382,12.022,12.022,12.022H309.3c6.64,0,12.022-5.382,12.022-12.022S315.94,368.626,309.3,368.626z" data-original="#000000" class="active-path" data-old_color="#AC0E0E" fill="#AA0E0E"/>
	</g>
</g></g> </svg>
