<?xml version="1.0" encoding="iso-8859-1"?>
<!-- Generator: Adobe Illustrator 17.1.0, SVG Export Plug-In . SVG Version: 6.00 Build 0)  -->
<!DOCTYPE svg PUBLIC "-//W3C//DTD SVG 1.1//EN" "http://www.w3.org/Graphics/SVG/1.1/DTD/svg11.dtd">
<svg xmlns="http://www.w3.org/2000/svg" xmlns:xlink="http://www.w3.org/1999/xlink" version="1.1" id="Capa_1" x="0px" y="0px" viewBox="0 0 182.245 182.245" style="enable-background:new 0 0 182.245 182.245;" xml:space="preserve" width="512px" height="512px">
<path d="M159.848,53.311c-0.01-0.045-0.021-0.089-0.032-0.133c-2.005-7.725-8.979-13.119-16.959-13.119h-17.067v-9.794h24.658  c2.762,0,5-2.238,5-5V9.563c0-2.762-2.238-5-5-5H91.131c-2.762,0-5,2.238-5,5v15.702c0,2.762,2.238,5,5,5h24.658v9.794h-76.4  c-7.979,0-14.954,5.395-16.96,13.118c-0.011,0.045-0.022,0.089-0.032,0.134l-17.055,73.99c0.473-0.04,0.948-0.073,1.431-0.073h168.7  c0.483,0,0.958,0.032,1.432,0.073L159.848,53.311z M144.379,76.431c0,2.762-2.238,5-5,5H42.866c-2.762,0-5-2.238-5-5V64.776  c0-2.762,2.238-5,5-5h96.513c2.762,0,5,2.238,5,5V76.431z M175.473,137.228H6.772c-3.734,0-6.772,3.038-6.772,6.773v26.907  c0,3.735,3.038,6.773,6.772,6.773h168.7c3.734,0,6.772-3.038,6.772-6.773v-26.907C182.245,140.266,179.207,137.228,175.473,137.228z   M106.381,158.271c0,5.089-4.141,9.229-9.23,9.229H85.821c-5.089,0-9.229-4.141-9.229-9.229v-1.632c0-5.089,4.141-9.229,9.229-9.229  H97.15c5.09,0,9.23,4.141,9.23,9.229V158.271z" fill="#FFFFFF"/>
<g>
</g>
<g>
</g>
<g>
</g>
<g>
</g>
<g>
</g>
<g>
</g>
<g>
</g>
<g>
</g>
<g>
</g>
<g>
</g>
<g>
</g>
<g>
</g>
<g>
</g>
<g>
</g>
<g>
</g>
</svg>
