<?xml version="1.0" encoding="iso-8859-1"?>
<!-- Generator: Adobe Illustrator 18.0.0, SVG Export Plug-In . SVG Version: 6.00 Build 0)  -->
<!DOCTYPE svg PUBLIC "-//W3C//DTD SVG 1.1//EN" "http://www.w3.org/Graphics/SVG/1.1/DTD/svg11.dtd">
<svg xmlns="http://www.w3.org/2000/svg" xmlns:xlink="http://www.w3.org/1999/xlink" version="1.1" id="Capa_1" x="0px" y="0px" viewBox="0 0 54 54" style="enable-background:new 0 0 54 54;" xml:space="preserve" width="512px" height="512px">
<g>
	<path d="M39.494,26c-0.552,0-1,0.448-1,1s0.448,1,1,1h3c0.552,0,1-0.448,1-1s-0.448-1-1-1H39.494z" fill="#FFFFFF"/>
	<path d="M52.494,26h-2c-0.552,0-1,0.448-1,1s0.448,1,1,1h2c0.552,0,1-0.448,1-1S53.046,26,52.494,26z" fill="#FFFFFF"/>
	<path d="M46.585,7.908C41.486,2.809,34.706,0,27.494,0S13.501,2.809,8.402,7.908c-10.527,10.527-10.527,27.656,0,38.184   c5.1,5.1,11.88,7.908,19.092,7.908s13.992-2.809,19.092-7.908l0.707-0.707L28.908,27L47.292,8.615L46.585,7.908z M24.494,17   c-2.206,0-4-1.794-4-4s1.794-4,4-4s4,1.794,4,4S26.699,17,24.494,17z" fill="#FFFFFF"/>
</g>
<g>
</g>
<g>
</g>
<g>
</g>
<g>
</g>
<g>
</g>
<g>
</g>
<g>
</g>
<g>
</g>
<g>
</g>
<g>
</g>
<g>
</g>
<g>
</g>
<g>
</g>
<g>
</g>
<g>
</g>
</svg>
