<?xml version="1.0" encoding="iso-8859-1"?>
<!-- Generator: Adobe Illustrator 16.0.0, SVG Export Plug-In . SVG Version: 6.00 Build 0)  -->
<!DOCTYPE svg PUBLIC "-//W3C//DTD SVG 1.1//EN" "http://www.w3.org/Graphics/SVG/1.1/DTD/svg11.dtd">
<svg version="1.1" id="Capa_1" xmlns="http://www.w3.org/2000/svg" xmlns:xlink="http://www.w3.org/1999/xlink" x="0px" y="0px"
	 width="255.603px" height="255.603px" viewBox="0 0 255.603 255.603" style="enable-background:new 0 0 255.603 255.603;"
	 xml:space="preserve">
<g>
	<g>
		<path d="M49.086,254.779c7.164,2.579,15.066-1.129,17.637-8.295L95.506,172.4l-5.256,48.085l75.088-0.011l-5.251-48.084
			l28.77,74.094c2.589,7.172,10.485,10.885,17.652,8.295c7.151-2.589,10.874-10.475,8.301-17.637l-45.816-125.116
			c-0.409-1.167-1.02-2.195-1.719-3.161c-0.016-0.031-0.036-0.046-0.052-0.085c-0.27-0.365-0.518-0.762-0.813-1.104h-0.14
			c-1.465-1.646-3.268-2.824-5.317-3.35l0.057-0.313h-0.818h-1.626h-0.792H97.833h-0.8H95.41h-0.805l0.052,0.313
			c-2.059,0.526-3.86,1.704-5.328,3.35h-0.145c-0.29,0.347-0.539,0.743-0.8,1.104c-0.021,0.028-0.036,0.054-0.057,0.085
			c-0.684,0.966-1.3,1.994-1.714,3.161L40.799,237.142C38.212,244.298,41.936,252.201,49.086,254.779z"/>
		<path d="M84.694,46.823c-1.258,1.701-2.524,3.402-2.488,3.28c-3.669,4.088-3.78,6.618-4.2,11.651c0,0,0,11.197,4.497,13.318
			c0.51,1.062,1.098,2.125,1.787,3.187c1.103,1.693,3.966,3.622,6.146,4.492s3.946,1.569,3.946,1.569
			c0.948,0.323,1.463-0.106,1.463-0.106l0.005-10.043c5.059,12.28,16.865,21.083,30.818,21.797v0.096
			c0.324,0,0.608-0.046,0.921-0.046c0.313,0,0.601,0.046,0.922,0.046v-0.096c13.95-0.72,25.746-9.507,30.805-21.782l0.005,10.033
			c0,0,0.528,0.424,1.466,0.106c0,0,1.766-0.699,3.945-1.569c2.181-0.87,5.044-2.793,6.146-4.492
			c0.688-1.054,1.279-2.121,1.787-3.187c4.494-2.115,4.494-13.318,4.494-13.318c-0.419-5.033-0.528-7.562-4.199-11.65
			c0.036,0.116-1.222-1.58-2.485-3.28c-1.124-1.522-3.102-3.226-4.806-4.189c0.124-0.93,0.326-2.62,0.44-4.746l0.041-0.749
			l-1.139-0.308c-0.119-1.836-0.316-3.436-0.591-4.889l-0.119,0.026l0.119-0.031c-0.041-0.187-0.088-0.375-0.135-0.557l-0.088-0.378
			c-0.191-0.896-0.403-1.792-0.652-2.677c-0.088-0.295-0.181-0.587-0.284-0.88l-0.146-0.445c-0.238-0.725-0.477-1.442-0.751-2.146
			c-0.145-0.383-0.311-0.758-0.471-1.136l-0.104-0.238c-0.29-0.663-0.575-1.32-0.896-1.962c-0.217-0.445-0.45-0.891-0.693-1.331
			c-0.332-0.619-0.689-1.234-1.057-1.843c-0.259-0.419-0.513-0.833-0.776-1.243c-0.404-0.604-0.834-1.201-1.264-1.786l-0.223-0.29
			c-0.191-0.272-0.389-0.536-0.596-0.79c-0.507-0.642-1.041-1.248-1.59-1.851l-0.269-0.308c-0.146-0.168-0.301-0.35-0.456-0.51
			c-0.87-0.901-1.688-1.691-2.527-2.424c-0.077-0.062-0.145-0.114-0.331-0.264c-0.812-0.699-1.631-1.341-2.429-1.914
			c-0.212-0.155-0.43-0.297-0.647-0.435l-0.326-0.217c-0.642-0.44-1.284-0.86-1.957-1.255c-0.321-0.187-0.652-0.368-0.979-0.549
			l-0.207-0.109c-0.632-0.342-1.269-0.673-1.921-0.976c-0.431-0.202-0.865-0.389-1.306-0.572c-0.652-0.282-1.314-0.536-1.982-0.777
			c-0.451-0.158-0.896-0.311-1.357-0.451c-0.688-0.217-1.397-0.396-2.112-0.572L135.626,1c-0.353-0.091-0.71-0.176-1.069-0.256
			c-0.785-0.158-1.59-0.274-2.396-0.38l-0.44-0.065c-0.245-0.042-0.488-0.078-0.732-0.098c-2.615-0.267-4.746-0.267-7.332,0.005
			c-0.277,0.026-0.536,0.067-0.808,0.108l-0.44,0.065c-0.774,0.116-1.548,0.223-2.312,0.37c-0.396,0.085-0.79,0.181-1.18,0.282
			l-0.445,0.116c-0.596,0.147-1.188,0.303-1.771,0.481c-0.605,0.187-1.204,0.399-1.804,0.616c-0.456,0.171-0.917,0.334-1.367,0.525
			c-0.712,0.298-1.416,0.608-2.11,0.948c-0.251,0.121-0.505,0.251-0.749,0.378c-12.233,6.268-20.371,18.812-21.362,32.847
			l-0.792,0.212l0.044,0.748c0.132,2.343,0.36,4.166,0.481,5.01C87.457,43.895,85.717,45.438,84.694,46.823z M127.134,5.628
			c17.953,0,32.167,15.222,33.435,35.154c-0.45,0.031-0.999,0.106-1.273,0.329l0.005,6.219
			c-5.069-12.254-16.854-21.013-30.789-21.728v-0.096c-0.321,0-0.608,0.042-0.922,0.047c-0.313-0.005-0.598-0.047-0.921-0.047v0.096
			c-13.939,0.715-25.728,9.474-30.802,21.738l0.005-6.229c-0.415-0.329-1.427-0.345-1.831-0.339l-0.026-0.318
			C95.41,20.272,109.334,5.628,127.134,5.628z"/>
	</g>
</g>
<g>
</g>
<g>
</g>
<g>
</g>
<g>
</g>
<g>
</g>
<g>
</g>
<g>
</g>
<g>
</g>
<g>
</g>
<g>
</g>
<g>
</g>
<g>
</g>
<g>
</g>
<g>
</g>
<g>
</g>
</svg>
