<?xml version="1.0" encoding="iso-8859-1"?>
<!-- Generator: Adobe Illustrator 16.0.0, SVG Export Plug-In . SVG Version: 6.00 Build 0)  -->
<!DOCTYPE svg PUBLIC "-//W3C//DTD SVG 1.1//EN" "http://www.w3.org/Graphics/SVG/1.1/DTD/svg11.dtd">
<svg version="1.1" id="Capa_1" xmlns="http://www.w3.org/2000/svg" xmlns:xlink="http://www.w3.org/1999/xlink" x="0px" y="0px"
	 width="778.117px" height="778.117px" viewBox="0 0 778.117 778.117" style="enable-background:new 0 0 778.117 778.117;"
	 xml:space="preserve">
<g>
	<g>
		<g>
			<path d="M706.264,602.08V219.786h-16.27v-85.719c0-12.353-8.535-22.687-20.021-25.499V56.48H604.9v402.945h65.072v-0.007h3.756
				v142.659h-71.855v55.062h176.244v-55.062h-71.854V602.08L706.264,602.08z"/>
			<polygon points="532.949,601.507 320.214,627.108 320.214,657.141 532.949,657.141 			"/>
			<rect x="320.214" y="669.08" width="457.901" height="52.558"/>
		</g>
		<circle cx="209.133" cy="211.592" r="114.071"/>
		<path d="M409.535,491.368l-183.49-0.146l-6.189-0.02v-30.332l-0.214-25.392c0-60.65-49.169-109.821-109.822-109.821
			c-2.055,0-4.095,0.069-6.123,0.18l-0.154-0.18C46.358,325.659,0,372.016,0,429.2v292.434h219.857V597.06l-2.908-0.229
			c-0.207-0.02-0.258,0.002-0.387,0.002c-14.876,0-29.132-6.265-39.178-17.232l-89.236-97.407c-2.845-3.104-2.634-7.926,0.47-10.769
			c3.103-2.845,7.925-2.635,10.769,0.471l89.236,97.404c7.25,7.916,17.477,12.757,28.244,12.914
			c0.716,0.008,10.491,0.149,10.491,0.149h182.177c25.129,0,45.5-20.37,45.5-45.501
			C455.033,511.737,434.662,491.368,409.535,491.368z"/>
	</g>
</g>
<g>
</g>
<g>
</g>
<g>
</g>
<g>
</g>
<g>
</g>
<g>
</g>
<g>
</g>
<g>
</g>
<g>
</g>
<g>
</g>
<g>
</g>
<g>
</g>
<g>
</g>
<g>
</g>
<g>
</g>
</svg>
