<?xml version="1.0" encoding="iso-8859-1"?>
<!-- Generator: Adobe Illustrator 19.0.0, SVG Export Plug-In . SVG Version: 6.00 Build 0)  -->
<svg xmlns="http://www.w3.org/2000/svg" xmlns:xlink="http://www.w3.org/1999/xlink" version="1.1" id="Capa_1" x="0px" y="0px" viewBox="0 0 512 512" style="enable-background:new 0 0 512 512;" xml:space="preserve" width="512px" height="512px">
<g>
	<g>
		<path d="M256,271c-24.814,0-45,20.186-45,45c0,24.814,20.186,45,45,45c24.814,0,45-20.186,45-45C301,291.186,280.814,271,256,271z    " fill="#D80027"/>
	</g>
</g>
<g>
	<g>
		<path d="M376,301c-16.538,0-30,13.462-30,30v60H166v-60c0-16.538-13.462-30-30-30c-16.538,0-30,13.462-30,30v90    c0,16.569,13.431,30,30,30h30v46c0,8.284,6.716,15,15,15h150c8.284,0,15-6.716,15-15v-46h30c16.569,0,30-13.431,30-30v-90    C406,314.462,392.538,301,376,301z" fill="#D80027"/>
	</g>
</g>
<g>
	<g>
		<path d="M256,0C131.928,0,31,101.928,31,226c0,3.851,2.664,8.875,4.395,10.605l55.387,55.388    c6.713-7.771,15.284-13.755,25.139-17.283l-47.492-47.492c24.575-15.69,56.7-14.288,80.101,3.777l-13.359,40.089    C135.455,271.08,135.717,271,136,271c10.3,0,19.852,2.847,28.33,7.436l14.083-42.257c47.673-29.645,107.463-29.661,155.165-0.026    l14.092,42.283C356.148,273.847,365.7,271,376,271c0.284,0,0.546,0.081,0.829,0.084l-13.359-40.089    c23.414-18.083,55.538-19.497,80.11-3.787l-47.501,47.501c9.855,3.528,18.426,9.512,25.139,17.283l55.388-55.388    C478.27,234.941,481,229.88,481,226C481,101.928,380.072,0,256,0z" fill="#D80027"/>
	</g>
</g>
<g>
</g>
<g>
</g>
<g>
</g>
<g>
</g>
<g>
</g>
<g>
</g>
<g>
</g>
<g>
</g>
<g>
</g>
<g>
</g>
<g>
</g>
<g>
</g>
<g>
</g>
<g>
</g>
<g>
</g>
</svg>
