<?xml version="1.0" encoding="iso-8859-1"?>
<!-- Generator: Adobe Illustrator 16.0.0, SVG Export Plug-In . SVG Version: 6.00 Build 0)  -->
<!DOCTYPE svg PUBLIC "-//W3C//DTD SVG 1.1//EN" "http://www.w3.org/Graphics/SVG/1.1/DTD/svg11.dtd">
<svg xmlns="http://www.w3.org/2000/svg" xmlns:xlink="http://www.w3.org/1999/xlink" version="1.1" id="Capa_1" x="0px" y="0px" width="512px" height="512px" viewBox="0 0 914.35 914.35" style="enable-background:new 0 0 914.35 914.35;" xml:space="preserve">
<g>
	<path d="M457.175,755.925c201.599,0,375.399-118.9,455.299-290.3c2.5-5.3,2.5-11.5,0-16.9c-79.9-171.4-253.7-290.3-455.299-290.3   c-201.601,0-375.4,118.8-455.3,290.3c-2.5,5.3-2.5,11.5,0,16.9C81.775,637.024,255.575,755.925,457.175,755.925z M243.975,331.725   c0-39.9,32.399-72.3,72.3-72.3c11.1,0,21.6,2.5,30.9,6.9c7.8-4.5,15.899-8.5,24.199-12.1c27.2-11.5,56-17.3,85.7-17.3   c29.7,0,58.5,5.8,85.7,17.3c26.2,11.1,49.8,27,70,47.2s36.1,43.7,47.2,70c11.5,27.2,17.3,56,17.3,85.7s-5.8,58.5-17.3,85.7   c-11.101,26.199-27,49.8-47.2,70c-20.2,20.199-43.7,36.1-70,47.199c-27.2,11.5-56,17.301-85.7,17.301   c-29.7,0-58.5-5.801-85.7-17.301c-26.199-11.1-49.8-27-70-47.199c-20.199-20.2-36.1-43.7-47.2-70c-11.5-27.2-17.3-56-17.3-85.7   s5.8-58.5,17.3-85.7c0.2-0.5,0.4-0.9,0.6-1.4C247.975,359.024,243.975,345.825,243.975,331.725z" fill="#FFFFFF"/>
	<path d="M457.175,637.225c99.5,0,180.099-80.6,180.099-180.1s-80.6-180.1-180.099-180.1c-28.2,0-54.801,6.5-78.601,18   c6.4,10.8,10,23.3,10,36.8c0,39.9-32.399,72.3-72.3,72.3c-10.4,0-20.3-2.2-29.3-6.2c-6.5,18.5-10,38.5-10,59.2   C277.075,556.625,357.675,637.225,457.175,637.225z" fill="#FFFFFF"/>
</g>
<g>
</g>
<g>
</g>
<g>
</g>
<g>
</g>
<g>
</g>
<g>
</g>
<g>
</g>
<g>
</g>
<g>
</g>
<g>
</g>
<g>
</g>
<g>
</g>
<g>
</g>
<g>
</g>
<g>
</g>
</svg>
