<?xml version="1.0" encoding="iso-8859-1"?>
<!-- Generator: Adobe Illustrator 19.0.0, SVG Export Plug-In . SVG Version: 6.00 Build 0)  -->
<svg xmlns="http://www.w3.org/2000/svg" xmlns:xlink="http://www.w3.org/1999/xlink" version="1.1" id="Capa_1" x="0px" y="0px" viewBox="0 0 512 512" style="enable-background:new 0 0 512 512;" xml:space="preserve" width="512px" height="512px">
<g>
	<g>
		<g>
			<path d="M186.054,45.714c-19.315,0.065-37.176,10.273-47.036,26.883c15.962-6.334,32.979-9.593,50.152-9.606H322.83     c17.172,0.013,34.188,3.272,50.15,9.605c-9.859-16.609-27.719-26.816-47.034-26.882H186.054z" fill="#D80027"/>
			<path d="M115.429,81.339c8.733-31.812,37.636-53.875,70.625-53.911h139.893c32.992,0.036,61.896,22.103,70.625,53.92     l17.364,63.638c15.243,1.375,29.972,6.206,43.068,14.125l-19.566-71.487C423.294,35.963,376.394,0.105,322.83,0H189.17     C135.609,0.104,88.71,35.958,74.562,87.616l-19.565,71.493c13.095-7.922,27.825-12.754,43.068-14.129L115.429,81.339z" fill="#D80027"/>
			<path d="M448,274.286c18.922-0.013,37.265,6.528,51.91,18.511l-14.16-65.145c-9.737-44.037-53.002-72.119-97.188-63.08     L276.509,187.92c-13.525,2.839-27.493,2.839-41.018,0l-112.053-23.348c-44.191-9.05-87.466,19.041-97.188,63.089l-14.158,65.136     C26.736,280.813,45.078,274.273,64,274.286H448z" fill="#D80027"/>
			<path d="M448,292.571H64c-35.328,0.043-63.957,28.672-64,64V448c0.043,35.329,28.672,63.957,64,64h384     c35.329-0.043,63.957-28.671,64-64v-91.429C511.957,321.243,483.329,292.614,448,292.571z M75.794,313.509     c0.874-0.827,1.898-1.479,3.018-1.92c1.667-0.733,3.521-0.927,5.304-0.554c0.571,0.105,1.125,0.291,1.643,0.554     c0.562,0.18,1.088,0.458,1.554,0.821c0.525,0.315,1.016,0.683,1.465,1.099c1.685,1.743,2.634,4.067,2.651,6.491     c-0.015,1.194-0.263,2.374-0.732,3.473c-0.832,2.296-2.641,4.105-4.937,4.937c-1.099,0.469-2.279,0.718-3.474,0.733     c-2.424-0.017-4.748-0.967-6.491-2.651c-0.803-0.912-1.482-1.927-2.018-3.018c-0.437-1.105-0.653-2.285-0.634-3.474     C73.174,317.579,74.122,315.26,75.794,313.509z M21.023,381.263c-3.547-3.547-3.573-9.29-0.058-12.87l27.429-27.429     c3.579-3.515,9.322-3.489,12.87,0.058c3.547,3.547,3.573,9.29,0.058,12.87l-27.429,27.429     C30.313,384.836,24.57,384.81,21.023,381.263z M143.607,326.464L43.035,427.035c-3.579,3.515-9.322,3.489-12.87-0.058     c-3.547-3.547-3.573-9.29-0.058-12.87l100.571-100.571c3.579-3.515,9.322-3.489,12.87,0.058     C147.096,317.142,147.122,322.885,143.607,326.464z" fill="#D80027"/>
		</g>
	</g>
</g>
<g>
</g>
<g>
</g>
<g>
</g>
<g>
</g>
<g>
</g>
<g>
</g>
<g>
</g>
<g>
</g>
<g>
</g>
<g>
</g>
<g>
</g>
<g>
</g>
<g>
</g>
<g>
</g>
<g>
</g>
</svg>
