<?xml version="1.0" encoding="iso-8859-1"?>
<!-- Generator: Adobe Illustrator 18.0.0, SVG Export Plug-In . SVG Version: 6.00 Build 0)  -->
<!DOCTYPE svg PUBLIC "-//W3C//DTD SVG 1.1//EN" "http://www.w3.org/Graphics/SVG/1.1/DTD/svg11.dtd">
<svg xmlns="http://www.w3.org/2000/svg" xmlns:xlink="http://www.w3.org/1999/xlink" version="1.1" id="Capa_1" x="0px" y="0px" viewBox="0 0 460.127 460.127" style="enable-background:new 0 0 460.127 460.127;" xml:space="preserve" width="512px" height="512px">
<g>
	<path d="M226.63,160.948c-13.47-1.574-24.963-10.376-29.996-22.971c-5.03-12.592-2.767-26.889,5.908-37.313   c4.307-5.174,33.683-40.468,37.906-45.542c-25.234-26.467-60.817-42.984-100.186-42.984c-76.344,0-138.455,62.11-138.455,138.455   s62.11,138.455,138.455,138.455c70.818,0,129.379-53.448,137.487-122.122C256.374,164.426,265.489,165.492,226.63,160.948z    M91.503,165.593c-8.284,0-15-6.716-15-15s6.716-15,15-15h33.759V78.084c0-8.284,6.716-15,15-15c8.284,0,15,6.716,15,15v72.509   c0,8.284-6.716,15-15,15H91.503z" fill="#FFFFFF"/>
	<path d="M448.32,70.754h-50.88c-5.523,0-10,4.477-10,10c0,5.523,4.477,10,10,10h50.88c5.523,0,10-4.477,10-10   C458.32,75.231,453.842,70.754,448.32,70.754z" fill="#FFFFFF"/>
	<path d="M404.51,53.05l35.978-35.978c3.905-3.905,3.905-10.237,0-14.143s-10.237-3.905-14.143,0l-35.978,35.978   c-3.905,3.905-3.905,10.237,0,14.143C394.272,56.954,400.605,56.955,404.51,53.05z" fill="#FFFFFF"/>
	<path d="M333.862,100.146c19.223,0,35.062-15.589,35.062-35.062c0-19.364-15.698-35.062-35.062-35.062   c-19.432,0-35.062,15.785-35.062,35.062C298.801,84.375,314.463,100.146,333.862,100.146z" fill="#FFFFFF"/>
	<path d="M419.165,155.27c-0.11-21.964-18.07-39.834-40.035-39.834c-20.561,0-24.148,0-78.189,0l-37.046-4.332l19.941-23.959   c6.035-7.251,4.913-17.922-2.181-23.826c-7.052-5.869-17.751-5.068-23.789,2.142c-0.011,0.014-0.025,0.025-0.036,0.038   c-3.776,4.536-33.105,39.774-39.917,47.958c-3.972,4.771-5.011,11.335-2.708,17.1c2.304,5.765,7.579,9.805,13.745,10.526   l59.691,6.979c0,5.661,0.008,291.763,0.008,291.763c0,11.212,9.089,20.301,20.301,20.301c11.212,0,20.301-9.089,20.301-20.301   V281.942c0-2.42,1.962-4.383,4.383-4.383c2.42,0,4.382,1.962,4.382,4.383v157.884c0,11.212,9.089,20.301,20.301,20.301   c11.212,0,20.301-9.089,20.301-20.301c0-268.489-0.36-114.737-0.368-284.396c0-1.955,1.585-3.54,3.54-3.541   c1.955,0,3.54,1.585,3.541,3.54c0,0.003,0,0.006,0,0.009l0.624,124.286c0.046,9.315,7.611,16.832,16.915,16.832   c0.028,0,0.059,0,0.087,0c9.343-0.047,16.879-7.659,16.832-17.002L419.165,155.27z" fill="#FFFFFF"/>
</g>
<g>
</g>
<g>
</g>
<g>
</g>
<g>
</g>
<g>
</g>
<g>
</g>
<g>
</g>
<g>
</g>
<g>
</g>
<g>
</g>
<g>
</g>
<g>
</g>
<g>
</g>
<g>
</g>
<g>
</g>
</svg>
